<svg xmlns="http://www.w3.org/2000/svg" viewBox="0 0 48 48" fill="none" role="img" aria-label="Guangzhou Phone Farm">
  <defs>
    <linearGradient id="pf-bg" x1="8" y1="6" x2="40" y2="42" gradientUnits="userSpaceOnUse">
      <stop stop-color="#67e8f9"/>
      <stop offset="0.45" stop-color="#22d3ee"/>
      <stop offset="1" stop-color="#6366f1"/>
    </linearGradient>
    <linearGradient id="pf-slot" x1="12" y1="14" x2="36" y2="34" gradientUnits="userSpaceOnUse">
      <stop stop-color="#e0f2fe"/>
      <stop offset="1" stop-color="#7dd3fc"/>
    </linearGradient>
  </defs>
  <rect x="4" y="4" width="40" height="40" rx="11" fill="url(#pf-bg)"/>
  <rect x="11" y="13" width="26" height="22" rx="2.5" fill="#0f1a30" fill-opacity="0.55" stroke="#0f172a" stroke-opacity="0.35"/>
  <rect x="14" y="16" width="5" height="3" rx="0.6" fill="url(#pf-slot)"/>
  <rect x="21" y="16" width="5" height="3" rx="0.6" fill="url(#pf-slot)"/>
  <rect x="28" y="16" width="5" height="3" rx="0.6" fill="url(#pf-slot)"/>
  <rect x="14" y="20.5" width="5" height="3" rx="0.6" fill="url(#pf-slot)" fill-opacity="0.92"/>
  <rect x="21" y="20.5" width="5" height="3" rx="0.6" fill="url(#pf-slot)" fill-opacity="0.88"/>
  <rect x="28" y="20.5" width="5" height="3" rx="0.6" fill="url(#pf-slot)" fill-opacity="0.84"/>
  <rect x="14" y="25" width="5" height="3" rx="0.6" fill="url(#pf-slot)" fill-opacity="0.8"/>
  <rect x="21" y="25" width="5" height="3" rx="0.6" fill="url(#pf-slot)" fill-opacity="0.76"/>
  <rect x="28" y="25" width="5" height="3" rx="0.6" fill="url(#pf-slot)" fill-opacity="0.72"/>
  <rect x="14" y="29.5" width="5" height="3" rx="0.6" fill="url(#pf-slot)" fill-opacity="0.68"/>
  <rect x="21" y="29.5" width="5" height="3" rx="0.6" fill="url(#pf-slot)" fill-opacity="0.64"/>
  <rect x="28" y="29.5" width="5" height="3" rx="0.6" fill="url(#pf-slot)" fill-opacity="0.6"/>
  <circle cx="33.5" cy="16" r="1.2" fill="#22d3ee"/>
  <circle cx="36.5" cy="16" r="1.2" fill="#34d399"/>
  <rect x="13" y="31" width="4" height="2" rx="0.5" fill="#94a3b8" fill-opacity="0.9"/>
  <rect x="18.5" y="31" width="4" height="2" rx="0.5" fill="#94a3b8" fill-opacity="0.7"/>
</svg>
